<?xml version="1.0" encoding="utf-8"?>
<!-- Generator: Adobe Illustrator 22.0.1, SVG Export Plug-In . SVG Version: 6.00 Build 0)  -->
<svg version="1.1" id="Layer_1" xmlns="http://www.w3.org/2000/svg" xmlns:xlink="http://www.w3.org/1999/xlink" x="0px" y="0px"
	 width="250px" height="203.1px" viewBox="0 0 250 203.1" style="enable-background:new 0 0 250 203.1;" xml:space="preserve">
<g>
	<path style="fill:#FFFFFF;" d="M237,108.8l1.6-6.1h-12.8C223,88.3,216,81.5,211,79.3c0-0.5,0.1-1.1,0.1-1.7c0-1.6-0.2-3.4-0.6-5.6
		c2.3-2.2,3.7-5.6,3.7-9.3c0-0.3,0-0.7,0-1c-0.3-5-3.1-9.5-7.5-12.1c0-0.1,0-0.1,0-0.2c0-4.8,0.9-9,2.6-12.5
		c0.2,0.1,0.3,0.1,0.5,0.2l3.3,1.4l0.3-3.5c0.1-0.8,0.2-1.5,0.4-2.1l0.9-2.2l-2.2-1c-1.3-0.6-3.8-2-6.4-4.8c0.1-0.3,0.2-0.6,0.3-0.8
		c1.6,0.9,3.8,1.7,6.4,1.5c2.7-0.2,5.2-1.6,7.1-3.9c1.4-1.7,1.1-4.3,0-6.1c-1-1.7-2.6-2.6-4.3-2.3l0,0c-0.3,0-2-0.6-4.3-3.5
		c-4.8-5.9-15-11-25.3-9.4c-5.4,0.8-12.4,3.8-17,13.1c-4-2.1-7.1-4.1-8.5-5.4l-1.8-1.7L156.8,8c-0.8,0.8-2.4,2.3-4.4,3.5
		c-1.5-1-3.5-2.3-5.6-3.6l-1.5-0.9l-1.4,1.1c-2.3,1.8-8.6,5.8-17.5,6.9c-5.2-7.4-15-13.2-28-8.7c-8.8,3.1-11.2,6.6-13.3,9.7
		c-1.3,1.9-2.4,3.5-5.1,5.1c-2.1,1.2-3.3,3.1-3.2,5.2c0,2.1,1.3,4.1,3.5,5.3c2.2,1.2,5,1.4,7.8,0.6c-0.1,1.3-0.4,2.5-0.7,3.4
		l-0.6,1.3l0.8,1.2c0.6,0.9,1.8,2.5,3.1,4c-0.2,1.4-0.6,2.9-0.8,4.1c-2.7,1.5-3,1.8-4.9,3.5l0,0l0,0c-1,0.9-1.9,1.9-2.6,2.8
		c-9.4,1.6-15.9,9.8-17.6,12.1c-9.4,4.1-16,10.1-19.6,17.8c-2.4,5-3.5,10.7-3.5,17.5c0,0.4,0,0.8,0,1.2H27.6L0,203.1l211.3,0
		c8.1,0,14.4-5,16.6-13.1l22.1-81.2H237z"/>
	<path d="M231,105.2h1.2l0.3,2.3h0l1.5-2.3h1.2l-1,3.6h-0.8l0.7-2.5h0l-1.6,2.5h-0.7l-0.3-2.5h0l-0.7,2.5h-0.8L231,105.2z
		 M228.2,105.9h-1l0.2-0.7h2.9l-0.2,0.7h-1l-0.8,2.9h-0.9L228.2,105.9z"/>
	<path d="M224.2,111.4c-1.2-22.1-11.6-29.4-16-30.3c0.3-2.6,0.5-5.7-0.6-10.1c5.6-3.7,5.8-15.3-3.6-19.9c-0.2-5.8,0.6-12.2,4.1-17.5
		c0.7,0.4,1.6,0.8,2.5,1.2c0.1-0.8,0.2-1.8,0.6-2.8c-1.7-0.8-4.9-2.7-8.2-6.5c0.4-1.6,1.1-3.9,2.3-5.2c0,0,6.9,6.2,12.4-0.4
		c0.9-1.1-0.1-4.5-1.9-4.2c-1.6,0.3-4.1-1.2-6.7-4.4c-7.7-9.4-30.6-15.8-39.1,5.6c-3.1-1.6-8.9-4.6-11.5-7.1
		c-1.1,1.1-3.4,3.3-6.4,4.7c-1.4-1-4-2.7-6.8-4.4c-2.6,2-9.9,6.8-20.3,7.6c-1.9-3.1-10.1-14.5-25.9-9c-13.5,4.7-10,9.9-18,14.6
		c-5.3,3.1,1,10.1,9.5,4.8c0,0,0.3,5.4-1.1,8.4c0.7,1.1,2.2,3.1,3.7,4.7c-0.3,2-0.9,5.1-1.2,6.5c-3.5,2-3.5,2-5.5,3.8
		c-1.2,1.1-2.2,2.3-3,3.3c-10.3,1.2-17.3,11.8-17.3,11.8c-20.4,8.6-22.9,24-22.1,37H29.6L3.4,200.6l208,0c7,0,12.2-4.2,14.1-11.2
		l21.2-78H224.2z"/>
	<path style="fill:#8C734B;" d="M169.9,45.7l1.7-0.1c0,0,0.5,0.6,1,1.4c1.3-1.4,4.1-2.1,4.1-2.1c-2.1-4.3,2.2-9.2,2.2-9.2
		c-1.5,4.8,0.5,7.4,1.7,8.5c7.5-3.5,14.6-13.7,14.6-13.7c7.9,8.6,4.8,12.6,4.8,12.6c-0.7-4-4.5-8.4-4.5-8.4
		c-0.7,1.8-2.5,3.7-4.4,5.5c4.2,0.1,8.9,2.7,9.5,7.7c0.2,0.1,0.3,0.1,0.4,0.2c-0.1-7.9,3.1-13.9,4.5-16.1c-2-1.4-3.4-3.1-4.2-4.1
		c-24.8,3.4-27.3,10.7-27.3,10.7c-2.3-2.6-0.3-6.5,0.9-7.2c3.1-3.5,7.6-4.9,10-5.5c-5.1-1.3-10.2-3.5-14.4-5.6c0,0,0,0,0,0
		c-7.4-0.2-10.4-2.3-11.2-3c0.6,0.6,6.3,5.9,7.1,14.9c0.8,1,1.9,3.1,1.9,3.1C173.4,38.1,171.2,43.6,169.9,45.7"/>
	<path style="fill:#8C734B;" d="M195.1,48.1c1.7,0.4,2.4,0.6,3.8,0.9c0-1.2-0.5-2.5-1.3-3.1C196.6,46.1,195.4,46.9,195.1,48.1"/>
	<path style="fill:#808285;" d="M188.3,48.8c0,0-8.2-2-13,0.7c2.5,0,9.6,0.2,12.7,1.7C188.3,50.6,188.6,49.7,188.3,48.8"/>
	<path style="fill:#BCBDC0;" d="M149.2,71.5c-0.9,1-1.6,1.9-2,2.6c0.6-0.5,1.3-1,2.1-1.4C149.3,72.3,149.2,71.9,149.2,71.5"/>
	<path style="fill:#FFFFFF;" d="M140.5,49.9c1.9-0.4,3.8-0.8,5.7-1.2c-0.2-1.3,0.2-2.5,1-3.3C142.9,46.2,141.1,48.1,140.5,49.9"/>
	<path style="fill:#FFFFFF;" d="M186.7,44c-0.7,0.5-1.4,1-1.7,1.3c2.8,0.3,5.6,1.1,5.6,1.1l0.5,1.4c0.8,0.1,1.9,0.1,1.9,0.1
		c0.2-0.7,0.7-2.1,1.2-3.1C192.5,44.2,189.4,43.8,186.7,44"/>
	<path style="fill:#BCBDC0;" d="M188.2,42.8c-0.4,0.3-1,0.7-1.5,1.2c2.8-0.2,5.8,0.2,7.5,0.8c0.3-0.5,0.5-0.9,0.8-1.1
		C193.5,43,191.3,42.6,188.2,42.8"/>
	<path style="fill:#BCBDC0;" d="M147.2,45.4c0.4-0.5,1-0.9,1.6-1.2c-7.5,0.5-9.3,3.7-9.5,6c0.4-0.1,0.8-0.2,1.2-0.3
		C141.1,48.1,142.9,46.2,147.2,45.4"/>
	<path style="fill:#8C734B;" d="M152.9,46.4c-0.4-0.3-0.8-0.5-1.2-0.8c-1.3,0.4-2.7,1.5-2.7,2.7c0.7-0.1,1.3-0.2,2-0.3
		C151.3,47.3,152,46.7,152.9,46.4"/>
	<path style="fill:#FFFFFF;" d="M151.3,70.7c0,0,0,0.3,0,0.7c1.1-0.6,2.1-1.2,2.7-1.4c0-0.3,0-0.6,0-0.9v0
		C153,69.6,152.1,70.2,151.3,70.7"/>
	<path style="fill:#FFFFFF;" d="M173.2,65c1.6-0.1,3.2-0.1,5,0c0-0.1,0.1-0.2,0.1-0.3c-1.6-0.2-3.2-0.3-4.7-0.3
		C173.6,64.4,173.4,64.7,173.2,65"/>
	<path style="fill:#FFFFFF;" d="M162.9,66.6c0.4-0.1,0.9-0.3,1.6-0.4c0-0.3,0-0.6,0-1c-0.7,0.1-1.4,0.3-2.1,0.5
		C162.6,66,162.7,66.3,162.9,66.6"/>
	<path style="fill:#FFFFFF;" d="M166.6,65.7c1.3-0.2,2.8-0.5,4.5-0.6c0.1-0.3,0.2-0.5,0.3-0.7c-1.6,0.1-3.2,0.2-4.7,0.4
		C166.7,64.8,166.6,65.3,166.6,65.7"/>
	<path style="fill:#BCBDC0;" d="M184.5,65.8c-0.8-0.5-2-1-3.5-1.5c-0.2,0.3-0.4,0.6-0.5,0.8C181.7,65.3,183.1,65.5,184.5,65.8"/>
	<path style="fill:#BCBDC0;" d="M154,69.1c0-0.5,0-1,0.1-1.5c-1,0.6-1.9,1.2-2.7,1.9c0,0.4-0.1,0.8-0.1,1.3
		C152.1,70.2,153,69.6,154,69.1"/>
	<path style="fill:#BCBDC0;" d="M164.7,63.9c-0.9,0.2-1.8,0.3-2.8,0.6c0.2,0.4,0.3,0.8,0.5,1.3c0.7-0.2,1.4-0.3,2.1-0.5
		C164.6,64.8,164.6,64.3,164.7,63.9"/>
	<path style="fill:#BCBDC0;" d="M166.7,64.8c1.5-0.2,3-0.4,4.7-0.4c0.2-0.5,0.5-0.9,0.7-1.2c-1.5,0-3.2,0.1-5,0.3
		C167,63.9,166.8,64.3,166.7,64.8"/>
	<path style="fill:#BCBDC0;" d="M173.6,64.4c1.5,0,3.1,0.1,4.7,0.3c0.1-0.4,0.3-0.7,0.4-0.9c-1.2-0.3-2.6-0.4-4.2-0.5
		C174.1,63.6,173.8,64,173.6,64.4"/>
	<path style="fill:#8C734B;" d="M107.6,79.1L107.6,79.1C107.6,79.1,107.6,79.1,107.6,79.1C107.6,79.1,107.6,79.1,107.6,79.1"/>
	<path style="fill:#8C734B;" d="M207.4,57.6c-6.6-4.1-15.9-4.6-15.9-4.6c5.8,0.6,12.1,4,12.7,7.9c0.6,4.3-4.8,5.3-4.8,5.3
		c2.4-2,2.6-3.7,2.6-3.7c-2-0.9-4-1.6-5.9-2.3c0.9,2,1.7,5.1,1.1,9.7c5.7,6.1-0.1,11.2-3.1,12.3c-2,0.7-2.6,2.3-2.7,3.7
		c-1.2-3.5,2.2-5.7,2.2-5.7c1.8-1.3,2.8-2.7,3-4.1c-33.5-20-61.8,16.5-61.8,16.5c0.4-8.8,6.1-14.6,8.6-16.7
		c1.9-4.9,5.9-8.6,10.7-11.1c0.4-1.6,1.1-3.4,2.4-5.1c-12.6,4-21.6,11.4-24.7,17.7c-3.8-11.8,12.8-20.8,27-24.4
		c-40.2,3.8-49.1,19.4-51,26.1c1,5.9,6.4,10.7,11.1,12.7c-12.9-0.8-18.8-14.2-10.4-24.9c5.9-7.6,16.5-12.7,28-15.9
		c-0.6-7.1,7.1-8.8,10.1-9.1c-5.6-4.3-10-8.5-10-8.5c-1.4,0.7-2.6,1.6-3.6,2.6l4.6-6.3c4.3,7.3,18.3,15,22.1,17
		c2-0.3,4.7-0.4,6.1-0.6c2.8-2.5,3-4.1,3-4.1c-4.9-14.4-25.3-23.6-25.3-23.6c-6.6,3.7-13.7,1.7-13.7,1.7c0.3,1.1,0.4,2.1,0.4,2.8
		c3.2-0.9,7.7-0.3,7.7-0.3c-2.9,0.5-6.8,2.6-8.9,3.8c-2.2-8-10.2-9.3-13.3-8.4c1-1.4,2.3-2.1,3.2-2.5c-1.5-1.7-5.2-4.9-12.3-4.7
		C93.8,11,89.7,19,86.1,23.4c-0.6,0.7-1.5,1.3-2.2,1.7c1.6,0.2,5.6,0.1,10.5-3.4c0,0,0.9-0.7,2.6-2.8c4.2-5.3,14.6-4,16,0.5
		c-3.1-2.2-7.7-1.4-7.7-1.4c6.1,2,5.6,8.9,5.6,8.9c-2.1-6.9-8.5-6.9-10.6-6.7c-1.3,3.1,0.5,8.5,4.8,4.4c3.6,1.8,2.2,9.9-3.2,10.9
		c0,0,3.1-2.5,2.5-6.9c-0.7,0.3-1.6,0.5-2.5,0.4c0,1.9-1.9,4.4-5.2,4.5c0,0,3-1.4,2.8-5.5c-0.7-0.6-2.1-1.9-2.4-4.5
		c-1.3,1.1-2.8,2.7-3.5,3.5c0.5,3.7-0.2,7.2-0.6,8.8c1.2,2,3,4,4.1,5.2c6.9-4.4,16.7-3.4,20-13.4c-1.2-1.9-1.9-5.2-1.9-5.2
		c1.6,2,5.4,3.6,5.4,3.6c-2.8,14.2-16.4,13.2-25,19c0,0-2.1,12.9-7.2,23.3c-0.9,5.5-1.2,17.7,1.4,23.7c1.1-4.5,5.1-8,8.1-9.3
		c-5,5.5-12.7,21.4,5.5,30.1c14.3,6.8,27.9-8.2,29-13.3c-0.3,1.5-1.9,8.7-8.4,13.6c35-0.5,47.7-23.5,47.7-23.5
		c-0.1,2.4-0.6,4.2-1,5.4c-0.4,1.1-0.7,1.6-0.7,1.6s0.7,8.2-15.7,14.7c10.7,3.6,32.9-2.7,37.2-22.7c0,0,0.4,4.3-1.6,9
		c0.2,1.3,0.1,3.8-1.9,7.3c15-6.7,20.3-26.8,16.3-35.3C209.9,67.1,209.6,60.7,207.4,57.6 M140.5,23.8c6,10.4,23.8,19.5,23.8,19.5
		c-8.9,1.9-23.2-12-26.3-18.2C137.9,25,139.1,24.3,140.5,23.8 M113.8,16.8c-1.3-1.5-3.3-2.6-5.8-3.1c-3.7-0.7-9.2-0.1-12.3,3.9
		c-1.2,1.5-3.5,4-6,4.4c3.2-4.2,7.3-9.2,16.7-9.4c4.3-0.1,7.2,1.2,9,2.5C114.8,15.5,114.2,16.1,113.8,16.8 M118.3,43.1
		c2.8,0.6,9.5,2.5,14.8,6.6c0,0-10.6-6-19.1-2.5C114.5,45.9,115.6,44.1,118.3,43.1 M98.6,78c0-15.6,19.4-26,19.4-26s-2.3-1.2-9,0.3
		c0,0,9.9-5.3,19.1-1.7c0,0-26.6,8.4-26.6,27.4c0,9.9,10.6,15.9,12.7,15.9C114.3,93.9,98.6,93.6,98.6,78 M154.8,81.4
		c0.9,2.2,5.5,4.5,5.5,4.5c-2.9,7.2-13.9,10.6-18.3,6c8.9,2.1,14.1-5.3,14.1-5.3c-4.1-2-4.8-5.9-4.8-5.9c3.8-6.3,35.4-12.5,40.2-3.2
		c0,0-4.4,4.4-11.2,5.6c3.1-2,4.8-4.6,5.6-6.1C171.6,72.9,154.8,81.4,154.8,81.4 M177,104.6c0.7-2.5-0.1-4.6-0.1-4.6
		c-2,7.2-12.2,9.2-12.2,9.2c10.7-6.4,12-18.7,12-18.7c2,3,2.1,6.4,2.1,6.4c4.3-2.6,6.8-10.5,6.8-10.5
		C186.5,99.8,177,104.6,177,104.6"/>
	<path style="fill:#8C734B;" d="M189.9,5.5c-2.9-0.1-11.4,1.4-15,8.6c0,0,4.9-2.3,7.8,0.9c-1.7-0.8-6.7,0.6-7.7,4.4
		c0.9,0.4,2.4,1,4.5,1.8c0.8-5.5,5.9-5,5.9-5c-3,1.9-2.8,4.8-2.6,6.2c2.3,0.8,4.9,1.7,8,2.7c0,0,5.1-0.6,8.5-0.2
		c0.7-1.6,2.4-5,4-6.3c-1.3-1.2-2.8-2.5-4.4-3.6c-0.1,2.9-2.8,5.3-7.2,4.2c0,0-0.7,2.3,2,4.3c-1.9,0.4-6.2-2.5-3.6-6.9
		c2.8,1.9,6.6,0.3,6-3.1c-2.8-1.3-6.2-1.9-10.7-1.1c4.2-4.3,15.1-1.3,21.6,5.5c2.5,2.5,6.6,3.4,8,0.8
		C208.5,19.1,206.2,5.9,189.9,5.5 M191,8.3c-3,0-5.4,0.9-7,2.6c0,0-0.8,0.8-1.4,1.5c-1-0.7-2.2-1-3.2-1.1c3.8-3.3,9-4,10.5-4
		c6.1,0.2,10,2.2,13,4.7C199,9.7,194.7,8.3,191,8.3"/>
	<path style="fill:#CEBA90;" d="M179.3,11.3c1.1,0.1,2.2,0.4,3.2,1.1c0.6-0.7,1.4-1.5,1.4-1.5c1.6-1.7,4.1-2.6,7-2.6
		c3.7,0,8,1.4,11.8,3.7c-3-2.4-6.9-4.5-13-4.7C188.3,7.3,183.1,8,179.3,11.3"/>
	<path style="fill:#CEBA90;" d="M164.3,43.3c0,0-17.8-9.1-23.8-19.5c-1.4,0.5-2.5,1.3-2.5,1.3C141.1,31.3,155.4,45.1,164.3,43.3"/>
	<path style="fill:#CEBA90;" d="M101.5,78c0-19.1,26.6-27.4,26.6-27.4c-9.2-3.6-19.1,1.7-19.1,1.7c6.7-1.5,9-0.3,9-0.3
		S98.6,62.4,98.6,78s15.6,15.9,15.6,15.9C112.1,93.9,101.5,87.9,101.5,78"/>
	<path style="fill:#FFFFFF;" d="M178.8,96.9c0,0-0.2-3.4-2.1-6.4c0,0-1.3,12.4-12,18.7c0,0,10.2-2,12.2-9.2c0,0,0.8,2.1,0.1,4.6
		c0,0,9.5-4.9,8.6-18.2C185.7,86.4,183.1,94.3,178.8,96.9"/>
	<path style="fill:#CEBA90;" d="M106.3,12.6c-9.4,0.2-13.5,5.2-16.7,9.4c2.6-0.4,4.8-2.9,6-4.4c3.2-4,8.6-4.6,12.3-3.9
		c2.5,0.5,4.6,1.6,5.8,3.1c0.5-0.7,1-1.2,1.5-1.7C113.5,13.8,110.6,12.5,106.3,12.6"/>
	<path style="fill:#B4975A;" d="M123.9,113.3C135,116,156.5,112,170,96.7c0,0,0.3-0.5,0.7-1.6c0.4-1.2,0.8-3,1-5.4
		C171.6,89.7,158.9,112.8,123.9,113.3"/>
	<path style="fill:#FFFFFF;" d="M76.1,81.3l1.6,2.3c0,0,1.6-0.2,1.8-2.1c0.1-1.9-1.4-2.3-1.4-2.3L76.1,81.3z"/>
	<path style="fill:#BCBDC0;" d="M77.8,83.7l-1.6-2.3l3.4,0.3C79.4,83.5,77.8,83.7,77.8,83.7"/>
	<path style="fill:#FFFFFF;" d="M81.3,64.2l0.5,1.9c0,0,1.1,0.3,1.7-0.9c0.6-1.2-0.4-1.9-0.4-1.9L81.3,64.2z"/>
	<path style="fill:#BCBDC0;" d="M81.8,66.1l-0.5-1.9l2.2,1C82.9,66.4,81.8,66.1,81.8,66.1"/>
	<path style="fill:#808285;" d="M77.6,77.1l0.8,0.3c0.6-3.4,1.5-6.6,2.6-9.5l-0.8-0.2l-0.6-2.6c-2.4,4.7-3.8,9.7-4.6,14.7L77.6,77.1
		z"/>
	<path style="fill:#808285;" d="M85.4,67.7c1.8-0.9,4-8.7,4.6-11.2c-1.9,1.5-3.6,3.6-5,6.2c0.5,0.9,0.7,2.1,0.1,3.3
		c-0.5,1.1-1.4,1.7-2.4,1.9c-1.1,3.3-1.8,7-2.2,10.9c0.5,0.7,0.9,1.7,0.8,2.9c-0.1,1.1-0.5,1.9-1.1,2.5c0,4.7,0.5,9.6,1.6,14.5
		c0.7,0.6,1.3,1.4,1.5,2.6c0.2,1.1,0.2,2-0.1,2.7c0.8,2.5,1.7,4.9,2.8,7.3h9.2C81.7,98.3,85.4,67.7,85.4,67.7"/>
	<path style="fill:#808285;" d="M83.3,61.1l0.7,0.5c1.9-3.2,4.2-5.9,6.7-8c0.3-1.4,0.5-2.3,0.5-2.3C87,54.3,83.7,58,81.2,62.1
		l1.1-0.5L83.3,61.1z"/>
	<path style="fill:#808285;" d="M78.7,97.7c-0.8-4.2-1.1-8.2-1.1-12.1l-0.8,0.1l-2.2-3.2c-0.8,7.4-0.2,14.5,1,20l2.3-4.7L78.7,97.7z
		"/>
	<path style="fill:#BCBDC0;" d="M84.1,61.6l0.2,0.2c0.3,0.2,0.6,0.5,0.8,0.9c1.4-2.6,3.1-4.7,5-6.2c0.2-0.8,0.7-2.7,0.7-2.8
		C88.3,55.8,86,58.5,84.1,61.6"/>
	<path style="fill:#BCBDC0;" d="M81.1,106.7l0,0.1c0,0,0,0,0,0c0.5,0.4,2.9,2.3,3.2,4.6h1.9c-1.1-2.4-2-4.8-2.8-7.3
		C82.8,105.9,81.1,106.7,81.1,106.7"/>
	<path style="fill:#BCBDC0;" d="M78,85.6l-0.3,0c-0.1,3.9,0.3,8,1.1,12.1l0.3,0c0.8,0,2,0.2,3,1.1c-1.1-4.9-1.6-9.8-1.6-14.5
		C79.6,85.1,78.6,85.5,78,85.6"/>
	<path style="fill:#BCBDC0;" d="M81.3,67.9L81,67.9c-1.1,2.9-2,6.1-2.6,9.5l0.3,0.1c0.6,0.2,1.4,0.6,2,1.4c0.4-3.9,1.1-7.6,2.2-10.9
		C82.3,68.1,81.8,68.1,81.3,67.9"/>
	<path style="fill:#FFFFFF;" d="M77.5,102.8l2.8,2.2c0,0,1.9-0.9,1.3-3.2c-0.6-2.3-2.6-2.2-2.6-2.2L77.5,102.8z"/>
	<path style="fill:#BCBDC0;" d="M80.4,105l-2.8-2.2l4.2-1C82.2,104.1,80.4,105,80.4,105"/>
	<path style="fill:#FFFFFF;" d="M193.9,61.2c-0.8,2.7-3.5,5.8-3.9,6.2c0.7,0,1.6,0.2,2.4,0.5c0.9-1.1,1.1-3,1.1-3s0.4,0.6,0.2,3.6
		c0.4,0.2,0.8,0.5,1.1,0.7C195.1,65.4,193.9,61.2,193.9,61.2"/>
	<path style="fill:#FFFFFF;" d="M158.6,60.4c-2.5,2.1-2.5,8.7-2.5,8.7c0.4-0.2,0.9-0.4,1.4-0.6c-0.3-2.4,0.6-5,0.6-5
		c-0.2,2.1,0.7,4.3,0.8,4.5c0.8-0.2,1.5-0.4,2.1-0.6C159.3,64.7,158.6,60.4,158.6,60.4"/>
	<path style="fill:#BCBDC0;" d="M158.1,63.5c0,0-0.9,2.6-0.6,5c0.4-0.2,0.9-0.3,1.3-0.4C158.8,67.8,157.9,65.6,158.1,63.5"/>
	<path style="fill:#BCBDC0;" d="M193.6,68.5c0.2-3-0.2-3.6-0.2-3.6s-0.2,1.9-1.1,3C192.8,68.1,193.2,68.3,193.6,68.5"/>
	<path style="fill:#8C734B;" d="M69.7,103.7c1.4,0,2.7,0.1,3.9,0.2c-1.9-8-4.8-27.8,7.5-45.8c0,0-9,4.2-11.6,9.1c0,0,2.4,0,3.9,1.1
		c-11.1,0.2-29,11-27,35.4H69.7z"/>
	<path style="fill:#CEBA90;" d="M52.7,103.7c-0.1-9.2,2.1-22.2,14.8-27.3c0,0,0.1,6.1,1.4,8.4c0,0,0.6-7.8,2.7-13.5
		c0,0-23.7,4.5-22,32.3H52.7z"/>
	<path style="fill:#8C734B;" d="M221.2,111.4c-0.2-6.3-2.8-23-13.4-27.6c-4.3,17.4-16.2,23.4-21.7,25.3l-5,2.2H221.2z"/>
	<path style="fill:#CEBA90;" d="M188.6,54.9c-1.2,0.7-2.4,1.6-3.2,2.3c0.1,0.1,0.2,0.3,0.3,0.4c2.4,0.4,4.8,0.9,7.2,1.6
		c0.3-0.7,0.6-1.4,0.8-2.1c0,0,1.2,0.9,2.3,3.1c2,0.6,3.9,1.4,5.9,2.3C202.7,57.9,194.4,54.8,188.6,54.9"/>
	<path style="fill:#CEBA90;" d="M156.4,59.7c0.9-1.1,2.2-2.2,3.9-2.9c0,0,0.1,0.7,0.3,1.7c6.3-1.5,13.2-2.2,20.7-1.5
		c-1.1-1-2.4-2-3.5-2.8c-28.2-1.7-44.2,13.2-46,23.1C134.7,71.1,143.8,63.7,156.4,59.7"/>
	<path style="fill:#CEBA90;" d="M175.5,67.3C156.4,67.7,141,79,134.7,92.6c0,0,28.3-36.5,61.8-16.5C197.4,71.4,189.4,67,175.5,67.3"
		/>
	<path style="fill:#FFFFFF;" d="M166.4,32.3c-9.9-11.3-20.2-16-23.7-17.3c-3.3,3-10.2,4.5-13.3,5c0,0,7.2,2,13.7-1.7
		c0,0,20.4,9.2,25.3,23.6c0.9-2.8,0.1-5.5-0.2-6.5C168.2,35.4,167.2,33.3,166.4,32.3"/>
	<path style="fill:#FFFFFF;" d="M181.7,29.5l-6.7,2c-1.2,0.7-3.2,4.5-0.9,7.2c0,0,2.5-7.2,27.3-10.6C194,27.1,186.9,28.2,181.7,29.5
		"/>
	<path style="fill:#FFFFFF;" d="M166.4,32.3c0,0-3.9-7.9-12.1-15.7c1.3-0.6,3.4-1.7,4.6-3c1.8,1.2,6.1,4,11.6,6.8
		c-7.6-0.2-10.6-2.4-11.3-3.1C159.3,17.4,165.5,22.8,166.4,32.3"/>
	<path style="fill:#FFFFFF;" d="M159.4,52.8c5-1.2,9.6-1.8,12.8-1.6l0-0.1c-0.8-1.3-2.1-2.4-2.1-2.4c-11.1,0.5-22.9,2.3-33.3,5.3
		C146.1,53,153.7,52.7,159.4,52.8"/>
	<path style="fill:#FFFFFF;" d="M191.6,50.7c0,0.5,0,1.6-0.2,2.3c0,0,9.3,0.5,15.9,4.6C205.1,54.2,200.2,51.3,191.6,50.7"/>
	<path style="fill:#FFFFFF;" d="M94.4,21.6c-5,3.5-8.9,3.6-10.5,3.4c-0.9,0.5-1.6,0.9-1.5,1.1c0.2,1.3,3.9,2,8.1-1.2
		C91.8,24,93.2,22.8,94.4,21.6"/>
	<path style="fill:#CEBA90;" d="M136.7,54L136.7,54c-11.7,3.4-21.5,8.4-26.4,15.1c-2.6,3.5-3.2,6.9-2.7,10c2-6.7,10.9-22.4,51-26.1
		c0.2-0.1,0.5-0.1,0.7-0.2C153.7,52.7,146.1,53,136.7,54"/>
	<path style="fill:#8C734B;" d="M185.7,57.7c1.9,3,0.2,5.5,0.2,5.5c1.2,0.5,2.3,1,3.3,1.4c1.4-1.6,3.3-4.2,3.7-5.4
		C190.4,58.6,188,58,185.7,57.7"/>
	<path style="fill:#8C734B;" d="M160.5,58.5c0,0,0.3,1.8,0.8,3.4c7.3-1.9,15.2-1.7,21.2,0.8c1.2-1.7,1.1-2.7,1.1-2.7
		c-1-1.9-2.4-2.9-2.4-2.9C173.8,56.4,166.8,57,160.5,58.5"/>
	<path style="fill:#8C734B;" d="M71.2,134.4c1.9-1.2,3.6-3.1,4.4-6.1l2.2-8.1c0.8-3,0.6-5.4-0.6-7c-1.5-2-4.5-3-9.1-3H34.3L20,163.6
		h33.7c8.3,0,13.4-3.4,15.1-10.1l3.6-13.5C73.2,137.2,72.6,135.5,71.2,134.4 M52.9,140l-3.4,12.7c0,0,0,0,0,0c0,0,0,0,0,0h-7
		l3.4-12.7L52.9,140C52.9,140,52.9,140,52.9,140C52.9,140,52.9,140,52.9,140 M55.9,129h-7l2.1-7.9h7c0,0,0,0,0,0L55.9,129z"/>
	<path style="fill:#8C734B;" d="M102.5,117.9H79.7l-8.1,30.3h14.2l2.7-10l1.5,10h15.7l-2.6-11.9c1.8-0.7,3.6-2.3,4.5-5.5l1.3-5
		c0.7-2.6,0.6-4.5-0.4-5.8C107.2,118.1,104.5,117.9,102.5,117.9 M94.1,128.3h-2.9l0.5-1.8h2.9L94.1,128.3z"/>
	<polygon style="fill:#8C734B;" points="197.8,117.9 193.9,132.3 190.6,117.9 174.1,117.9 166.3,147.3 162,117.9 149.3,117.9 
		126.7,148.2 129.6,137 146.8,117.9 136.6,117.9 128.7,126.8 125.3,117.9 108.5,117.9 115.6,136.5 112.4,148.2 136.2,148.2 
		141.5,141.2 150.1,141.2 151.2,148.2 174.6,148.2 178.6,133.5 182,148.2 198.3,148.2 206.4,117.9 	"/>
	<polygon style="fill:#8C734B;" points="207.8,117.9 205.5,126.5 213.7,126.5 207.9,148.2 222.1,148.2 227.9,126.5 236.1,126.5 
		238.4,117.9 	"/>
	<path style="fill:#8C734B;" d="M41.5,171.6c-0.9-1.2-2.6-1.8-5.1-1.8H18.1l-6.5,24.3h18.2c5.9,0,8-3.2,8.7-5.9l1-3.8
		c0.4-1.4,0.2-2.3-0.3-3c0.9-0.7,1.6-1.7,2-3.2l0.7-2.7C42.3,173.9,42.2,172.6,41.5,171.6 M29.8,178.1h-2.5l0.4-1.4h2.5L29.8,178.1z
		 M27.4,187.2h-2.5l0.6-2.1h2.5L27.4,187.2z"/>
	<path style="fill:#8C734B;" d="M63.9,169.8l-4.7,17.4c0,0-7.2,0-7.3,0c0,0,4.7-17.4,4.7-17.4H45.2l-4.4,16.4
		c-0.7,2.6-0.5,4.7,0.5,6c0.9,1.2,2.5,1.9,4.6,1.9h11.3c6.4,0,8.4-4.5,9.3-7.9l4.4-16.4H63.9z"/>
	<polygon style="fill:#8C734B;" points="79.3,187.2 84,169.8 72.6,169.8 66.5,192.4 66,194.1 67.8,194.1 87.6,194.1 89.4,187.2 	"/>
	<polygon style="fill:#8C734B;" points="102.5,187.2 107.2,169.8 95.8,169.8 89.2,194.1 110.8,194.1 112.6,187.2 	"/>
	<path style="fill:#8C734B;" d="M141.4,171.6c-0.9-1.2-2.4-1.8-4.4-1.8h-18.1l-6.5,24.3h18.1c4.4,0,7.6-2.7,8.9-7.5l2.5-9.3
		C142.5,174.8,142.4,172.9,141.4,171.6 M127.8,187.2h-2.2l2.8-10.5h2.2L127.8,187.2z"/>
	<path style="fill:#8C734B;" d="M169.3,171.6c-0.9-1.2-2.4-1.8-4.4-1.8h-12.2c-2.1,0-3.9,0.6-5.4,1.8c-1.7,1.3-2.8,3.2-3.5,5.7
		l-2.5,9.3c-0.7,2.5-0.5,4.4,0.4,5.7c0.9,1.2,2.4,1.8,4.4,1.8h12.2c4.4,0,7.6-2.7,8.9-7.5l2.5-9.3
		C170.4,174.8,170.3,172.9,169.3,171.6 M155.7,187.2h-3.1l2.8-10.5h3.1L155.7,187.2z"/>
	<path style="fill:#8C734B;" d="M180.6,169.8c-2.1,0-3.9,0.6-5.4,1.8c-1.7,1.3-2.8,3.2-3.5,5.7l-2.5,9.3c-0.7,2.5-0.5,4.4,0.4,5.7
		c0.9,1.2,2.4,1.8,4.4,1.8h18.3l4.3-16h-13.8l0.4-1.4h13.2l1.9-6.9H180.6z"/>
	<path style="fill:#8C734B;" d="M206.9,169.8c-1.7,0-3.3,0.6-4.6,1.6c-1.5,1.2-2.6,2.9-3.1,4.9l-1.3,5c-0.6,2.1-0.5,3.6,0.3,4.6
		c0.5,0.7,1.3,1.1,2,1.3h-3.9l-1.9,6.9h17.1c4.1,0,7.1-2.4,8.2-6.7l1.5-5.5c0.4-1.6,0.3-3-0.4-4c-0.4-0.6-1-1-1.8-1.3h3.7l1.9-6.9
		H206.9z"/>
	<path style="fill:#FFFFFF;" d="M54.3,161.5H22.8l13.2-49.1h31.5c7.3,0,9.6,2.6,8.2,7.9l-2.2,8.1c-1.3,4.9-5.3,5.7-10.3,6.1l0,0.1
		c5.2,0.7,8.4,1.2,7.2,5.6l-3.6,13.5C65.3,158.6,61.9,161.5,54.3,161.5 M60.2,121.1c0.4-1.7-0.1-2.1-1.6-2.1h-9.2l-3.3,12.2h9.2
		c1.7,0,2.3-0.6,2.8-2.2L60.2,121.1z M55.1,140c0.5-1.9-0.1-2.2-1.6-2.2h-9.2l-4.6,17.1h9.2c1.6,0,2.3-0.4,2.8-2.2L55.1,140z"/>
	<path style="fill:#FFFFFF;" d="M92,146l-1.7-11.3h-3l-3,11.3h-9.9l7-26h20.6c4.3,0,6,1.4,4.9,5.8l-1.3,5c-0.6,2.3-1.8,3.9-5,3.9
		l2.4,11.3H92z M96.9,125.8c0.3-1.2,0-1.5-1.1-1.5h-5.8l-1.6,6.1h5.8c1.2,0,1.6-0.4,1.9-1.5L96.9,125.8z"/>
	<polygon style="fill:#FFFFFF;" points="127.7,136.4 125.1,146 115.2,146 117.9,135.9 111.8,120 123.6,120 127.6,130.8 137.2,120 
		142.3,120 	"/>
	<path style="fill:#FFFFFF;" d="M153.2,146l-1.1-7h-11.4l-5.3,7h-4.8l19.4-26h9.9l3.8,26H153.2z M150.2,126l-6.3,8.8h7.7L150.2,126z
		"/>
	<polygon style="fill:#FFFFFF;" points="183.9,146 178.9,124.5 178.8,124.5 173.1,146 168.8,146 175.7,120 188.7,120 193.6,141.2 
		193.7,141.2 199.4,120 203.7,120 196.7,146 	"/>
	<polygon style="fill:#FFFFFF;" points="226.3,124.3 220.5,146 210.6,146 216.4,124.3 208.2,124.3 209.4,120 235.7,120 234.5,124.3 
			"/>
	<path style="fill:#BCBDC0;" d="M37.3,154.9h1l4.9-18.5h10.3c0.5,0,1.5,0,2.3,0.6c-0.4-0.9-1.1-1.5-3-1.5H42.5L37.3,154.9z"/>
	<path style="fill:#BCBDC0;" d="M73.6,115.1c0.4,0.9,0.4,2.1-0.1,3.8l-2.5,9.2c-0.7,2.6-2.2,3.8-4.8,4.4c3.2-0.6,5-1.7,5.8-4.6
		l2.2-8.1C75.2,116.4,73.9,115.4,73.6,115.1"/>
	<path style="fill:#BCBDC0;" d="M57.8,116.6H47.6l-3.9,14.6h1l3.6-13.7h10.3c0.7,0,1.6,0.1,2.3,0.6
		C60.7,117.8,60.3,116.6,57.8,116.6"/>
	<path style="fill:#BCBDC0;" d="M68.4,137.1c0.1,0.4,0,0.9-0.2,1.6l-3.6,13.5c-0.9,3.4-2.9,6.9-11,6.9H24.9l-0.3,1h29.6
		c8.1,0,10.1-3.5,11-6.9l3.6-13.5C69.4,137.7,68.8,137.4,68.4,137.1"/>
	<path style="fill:#BCBDC0;" d="M95.1,122h-6.9l-2.3,8.5h1l2-7.5h6.9c0.4,0,1.2,0,1.8,0.5c-0.1-0.2-0.2-0.4-0.3-0.6
		C96.7,122,95.6,122,95.1,122"/>
	<polygon style="fill:#BCBDC0;" points="90,132.4 85.5,132.4 82.4,143.7 76.5,143.7 76.2,144.6 83.2,144.6 86.2,133.3 90.1,133.3 	
		"/>
	<path style="fill:#BCBDC0;" d="M105.4,122.3c-0.1-0.1-0.3-0.3-0.5-0.4c0.2,0.7,0,1.7-0.2,2.5l-1.3,5c-0.5,1.9-1.2,2.9-3.7,2.9h-2.3
		l2.4,11.3h-6.7l0.1,1h7.8l-2.4-11.3h1.8c2.4,0,3.2-1,3.7-2.9l1.3-5C105.7,124.4,106,123,105.4,122.3"/>
	<polygon style="fill:#BCBDC0;" points="122.6,121.5 121.6,121.5 125.6,132.4 126.4,131.7 	"/>
	<polygon style="fill:#BCBDC0;" points="137.9,121.5 125.5,135.3 123.3,143.7 117.3,143.7 117,144.6 124,144.6 126.4,135.7 
		139.1,121.5 	"/>
	<polygon style="fill:#BCBDC0;" points="149.9,124.3 149.7,122.9 140.9,134.6 142.2,134.6 	"/>
	<polygon style="fill:#BCBDC0;" points="158.7,121.5 157.7,121.5 160.9,143.7 154.3,143.7 154.4,144.6 162.1,144.6 	"/>
	<polygon style="fill:#BCBDC0;" points="151.7,136.7 139.4,136.7 133.5,144.6 134.7,144.6 140,137.6 151.8,137.6 	"/>
	<polygon style="fill:#BCBDC0;" points="191.2,141.2 192.1,141.2 187.5,121.5 186.6,121.5 	"/>
	<polygon style="fill:#BCBDC0;" points="200.8,121.5 194.9,143.7 184.8,143.7 185,144.6 195.6,144.6 201.8,121.5 	"/>
	<polygon style="fill:#BCBDC0;" points="177,122.2 171.3,143.7 170.9,143.7 170.6,144.6 172,144.6 177.4,124.2 	"/>
	<polygon style="fill:#BCBDC0;" points="232.9,121.5 232.7,122 224.5,122 218.7,143.7 212.7,143.7 212.5,144.6 219.4,144.6 
		225.2,122.9 233.4,122.9 233.8,121.5 	"/>
	<polygon style="fill:#BCBDC0;" points="216.8,122.9 217.1,122 210.3,122 210.1,122.9 	"/>
	<path style="fill:#FFFFFF;" d="M30.3,192.4H13.8l5.6-20.9h16.5c3.8,0,5,1.3,4.3,4.1l-0.7,2.7c-0.7,2.6-2.8,3-5.4,3.2l0,0.1
		c2.7,0.4,4.4,0.6,3.8,2.9l-1,3.8C36.1,190.9,34.3,192.4,30.3,192.4 M32.1,176.1c0.2-0.9,0-1.1-0.8-1.1h-4.8l-1.3,4.9h4.8
		c0.9,0,1.2-0.3,1.5-1.2L32.1,176.1z M29.8,184.5c0.3-1-0.1-1.1-0.8-1.1h-4.8l-1.5,5.6h4.8c0.8,0,1.2-0.2,1.4-1.1L29.8,184.5z"/>
	<path style="fill:#FFFFFF;" d="M57.6,192.4H46.3c-3.2,0-5-1.8-3.8-6.2l3.9-14.7h8L50.2,187c-0.4,1.3,0.1,1.9,1.4,1.9h7
		c1.4,0,1.9-0.3,2.3-1.7l4.2-15.7h3.5l-3.9,14.7C63.5,190.6,61.5,192.4,57.6,192.4"/>
	<polygon style="fill:#FFFFFF;" points="68.2,192.4 73.8,171.5 81.8,171.5 77.1,188.9 87.2,188.9 86.3,192.4 	"/>
	<polygon style="fill:#FFFFFF;" points="91.4,192.4 97,171.5 105,171.5 100.3,188.9 110.4,188.9 109.5,192.4 	"/>
	<path style="fill:#FFFFFF;" d="M130.9,192.4h-16.4l5.6-20.9h16.4c3.6,0,4.6,2.2,3.6,5.8l-2.5,9.3
		C136.6,190.2,134.5,192.4,130.9,192.4 M132.4,176.3c0.2-0.9-0.1-1.3-1.2-1.3h-4.1l-3.7,14h4.1c1.1,0,1.7-0.4,1.9-1.3L132.4,176.3z"
		/>
	<path style="fill:#FFFFFF;" d="M158.8,192.4h-12.2c-3.6,0-4.6-2.2-3.6-5.8l2.5-9.3c1-3.6,3.1-5.8,6.7-5.8h12.2
		c3.6,0,4.6,2.2,3.6,5.8l-2.5,9.3C164.6,190.2,162.4,192.4,158.8,192.4 M160.4,176.3c0.2-0.9-0.1-1.3-1.2-1.3h-3.5
		c-1.1,0-1.7,0.4-1.9,1.3l-3,11.3c-0.2,0.9,0.1,1.3,1.2,1.3h3.5c1.1,0,1.7-0.4,1.9-1.3L160.4,176.3z"/>
	<path style="fill:#FFFFFF;" d="M184.7,192.4l0.5-1.9h-0.1c-0.7,1.2-1.3,1.9-3.4,1.9h-7.2c-3.6,0-4.6-2.2-3.6-5.8l2.5-9.3
		c1-3.6,3.1-5.8,6.7-5.8h16l-0.9,3.5h-11.6c-1.1,0-1.7,0.4-1.9,1.3l-3,11.3c-0.2,0.9,0.1,1.3,1.2,1.3h2.7c1,0,1.6-0.4,1.9-1.3
		l1.2-4.3h-4.3l0.9-3.5h12.3l-3.4,12.5H184.7z"/>
	<path style="fill:#FFFFFF;" d="M212,192.4h-15.4l0.9-3.5h11.2c1,0,1.3-0.2,1.5-0.9l0.4-1.4c0.2-0.7-0.1-0.9-1.1-0.9h-6.8
		c-3,0-3.9-1.1-3.1-4.4l1.3-5c0.7-2.6,2.6-4.8,5.5-4.8h15.8l-0.9,3.5h-11c-1.1,0-1.5,0.2-1.6,0.8l-0.4,1.3c-0.2,0.6,0.1,0.8,1.2,0.8
		h5.9c3,0,4.7,1.2,4,4l-1.5,5.5C217.2,190.7,215.3,192.4,212,192.4"/>
	<polygon style="fill:#BCBDC0;" points="185.8,182.2 186,181.7 182.9,181.7 182.7,182.2 	"/>
	<polygon style="fill:#BCBDC0;" points="192.5,181 189.9,190.7 186.3,190.7 186.3,190.8 186.2,191.3 190.3,191.3 193.1,181 	"/>
	<path style="fill:#BCBDC0;" d="M30.8,173.3h-5.6l-1.8,6.5H24l1.6-6h5.6c0.3,0,0.9,0,1.4,0.4C32.4,173.7,31.8,173.3,30.8,173.3"/>
	<path style="fill:#BCBDC0;" d="M38.7,173.2c0.1,0.4,0.1,0.9-0.1,1.7l-0.9,3.4c-0.3,1.3-1.1,1.8-2.5,2.1c1.8-0.2,2.8-0.8,3.1-2.2
		l0.7-2.7C39.5,173.8,39.1,173.4,38.7,173.2"/>
	<path style="fill:#BCBDC0;" d="M21,188.9h0.6l1.8-6.7H29c0.3,0,0.9,0,1.4,0.4c-0.2-0.4-0.6-0.9-1.9-0.9h-5.6L21,188.9z"/>
	<path style="fill:#BCBDC0;" d="M36.4,183.2c0,0.1,0,0.3-0.1,0.5l-1,3.8c-0.5,1.7-1.4,3.3-5.4,3.3H15.4l-0.1,0.6h15
		c4,0,5-1.6,5.4-3.3l1-3.7C36.9,183.3,36.7,183.3,36.4,183.2"/>
	<path style="fill:#BCBDC0;" d="M48.7,186.2c-0.5,1.8,0.4,2.5,0.6,2.7c-0.3-0.6-0.3-1.3-0.1-2.1l3.8-14.1h-0.6L48.7,186.2z"/>
	<path style="fill:#BCBDC0;" d="M66.6,172.6l-3.4,12.7c-1.1,4-2.6,5.4-6,5.4H45.8c-1,0-1.8-0.2-2.3-0.6c0.3,0.5,0.8,1.2,2.8,1.2
		h11.3c3.4,0,5-1.4,6-5.4l3.6-13.3H66.6z"/>
	<polygon style="fill:#BCBDC0;" points="75.4,188.9 76,188.9 80.4,172.6 79.8,172.6 	"/>
	<polygon style="fill:#BCBDC0;" points="85.2,190 85,190.7 69.8,190.7 69.7,191.3 85.5,191.3 85.8,190 	"/>
	<polygon style="fill:#BCBDC0;" points="98.6,188.9 99.2,188.9 103.6,172.6 103,172.6 	"/>
	<polygon style="fill:#BCBDC0;" points="108.4,190 108.2,190.7 93,190.7 92.9,191.3 108.7,191.3 109,190 	"/>
	<path style="fill:#BCBDC0;" d="M130.8,173.3h-4.9l-4.2,15.6h0.6l4-15.1h4.9c0.3,0,1.1,0,1.7,0.5
		C132.8,174.1,132.4,173.3,130.8,173.3"/>
	<path style="fill:#BCBDC0;" d="M138.7,173.2c0.3,0.7,0.3,1.8-0.1,3.3l-2.5,9.3c-0.9,3.3-2.7,5-5.6,5h-14.4l-0.1,0.6h15
		c2.9,0,4.7-1.6,5.6-5l2.5-9.3C139.8,174.3,139.1,173.5,138.7,173.2"/>
	<path style="fill:#BCBDC0;" d="M149.8,189c-0.2-0.4-0.3-1-0.1-1.6l3-11.3c0.4-1.4,1.4-2.1,3-2.1h3.5c0.3,0,1.1,0,1.8,0.5
		c-0.3-0.5-0.9-1.1-2.2-1.1h-3.5c-1.6,0-2.6,0.7-3,2.1l-3,11.3C148.9,188.1,149.4,188.7,149.8,189"/>
	<path style="fill:#BCBDC0;" d="M166.6,173.2c0.3,0.7,0.3,1.8-0.1,3.3l-2.5,9.3c-0.9,3.3-2.7,5-5.6,5h-12.2c-1,0-1.7-0.2-2.2-0.6
		c0.1,0.2,0.5,1.1,2.6,1.1h12.2c2.9,0,4.7-1.6,5.6-5l2.5-9.3C167.7,174.2,166.9,173.4,166.6,173.2"/>
	<path style="fill:#BCBDC0;" d="M181.3,190.7h-7.2c-1,0-1.7-0.2-2.2-0.6c0.2,0.5,0.8,1.1,2.6,1.1h7.2c1.7,0,1.9-0.4,2.4-1.3l0.2-0.4
		c-0.3,0.2-0.6,0.3-1,0.4C183.1,190.5,182.7,190.7,181.3,190.7"/>
	<path style="fill:#BCBDC0;" d="M194.2,172.6l-0.2,0.7h-10.8c-1.6,0-2.6,0.7-3,2.1l-3,11.3c-0.3,1.2,0.1,1.9,0.5,2.2
		c-0.2-0.4-0.3-1-0.1-1.6l3-11.3c0.4-1.4,1.4-2.1,3-2.1h10.8l0.3-1.3H194.2z"/>
	<path style="fill:#BCBDC0;" d="M200.4,183.8c0,0.2,0.1,0.3,0.1,0.3c0.3,0.3,1,0.5,2.1,0.5h6.8c0.6,0,1.2,0.1,1.7,0.4
		c-0.2-0.5-0.7-1-2.1-1h-6.8C201.4,184,200.8,183.9,200.4,183.8"/>
	<path style="fill:#BCBDC0;" d="M218,179.6c0.1,0.4,0.1,0.9,0,1.5l-1.5,5.5c-0.8,2.8-2.3,4.1-5,4.1h-13.4l-0.1,0.6h14
		c2.7,0,4.2-1.3,5-4.1c0,0,1.5-5.5,1.5-5.5C218.8,180.2,218.3,179.8,218,179.6"/>
	<path style="fill:#BCBDC0;" d="M220.3,172.6l-0.2,0.7H210c-0.7,0-2.2,0-2.7,1.7c0,0-0.4,1.3-0.4,1.3c-0.3,1.1,0.2,1.6,0.5,1.8
		c-0.2-0.3-0.2-0.8-0.1-1.2l0.4-1.3c0.4-1.7,2-1.7,2.7-1.7h10.1l0.3-1.3H220.3z"/>
	<path style="fill:#FFFFFF;" d="M81.3,151.7l-2.2,8.2c0,0,0,0,0,0.1c-0.1,0-0.1,0-0.1,0h-3c0.1-0.5,2.2-8.3,2.2-8.3h-5.8l-2.1,7.7
		c-0.4,1.3-0.3,2.4,0.3,3.1c0.4,0.5,1.1,1,2.4,1h5.4c2.3,0,3.6-1.1,4.3-3.7l2.2-8.2H81.3z"/>
	<path style="fill:#8C734B;" d="M78.4,162.6H73c-1.5,0-2.4-0.8-1.8-3l1.9-7h3.8l-2,7.4c-0.2,0.6,0.1,0.9,0.6,0.9h3.4
		c0.7,0,0.9-0.1,1.1-0.8l2-7.5h1.7l-1.9,7C81.2,161.8,80.3,162.6,78.4,162.6"/>
	<path style="fill:#FFFFFF;" d="M99.4,151.7c0,0-0.8,3-1.4,5.2c-0.5-2.2-1.2-5.2-1.2-5.2h-6.5l-3.2,11.9h3.6c0,0,0.8-3,1.4-5.3
		c0.5,2.3,1.2,5.3,1.2,5.3h6.4l3.2-11.9H99.4z"/>
	<polygon style="fill:#8C734B;" points="94.2,162.6 92.3,154.3 92.3,154.3 90.1,162.6 88.4,162.6 91.1,152.6 96.1,152.6 97.9,160.8 
		98,160.8 100.2,152.6 101.8,152.6 99.1,162.6 	"/>
	<polygon style="fill:#FFFFFF;" points="108.5,151.7 105.3,163.5 111.1,163.5 114.3,151.7 	"/>
	<polygon style="fill:#8C734B;" points="106.6,162.6 109.2,152.6 113,152.6 110.4,162.6 	"/>
	<path style="fill:#FFFFFF;" d="M129.6,151.7c0,0-2.4,3.7-3.9,6c-0.2-2.3-0.6-6-0.6-6h-6l1.1,11.9h5.6l7.8-11.9H129.6z"/>
	<polygon style="fill:#8C734B;" points="125.4,162.6 121.2,162.6 120.2,152.6 124.2,152.6 125,160.5 130.1,152.6 131.9,152.6 	"/>
	<path style="fill:#FFFFFF;" d="M138.4,151.7l-3.2,11.9h10.6l1-3.6h-4.8c0.1-0.4,0.1-0.5,0.2-0.8h4.4l1-3.6h-4.4
		c0.1-0.2,0.1-0.2,0.1-0.4h4.8l1-3.6H138.4z"/>
	<polygon style="fill:#8C734B;" points="136.4,162.6 139.1,152.6 147.7,152.6 147.3,154.3 142.5,154.3 141.8,156.6 146.3,156.6 
		145.8,158.3 141.4,158.3 140.7,160.9 145.5,160.9 145.1,162.6 	"/>
	<path style="fill:#FFFFFF;" d="M154.2,151.7l-3.2,11.9h5.8c0,0,0.6-2.1,0.9-3.4c0.2,1.2,0.5,3.4,0.5,3.4h6.2c0,0-0.7-3.4-1-4.5
		c0.8-0.3,1.4-1,1.7-2l0.5-1.9c0.1-0.4,0.2-0.8,0.2-1.1c0-0.5-0.1-1-0.4-1.4c-0.6-0.8-1.7-0.9-2.5-0.9H154.2z M159.8,155.2
		c0,0.2-0.1,0.3-0.1,0.4h-0.8c0.1-0.2,0.1-0.2,0.1-0.4H159.8z"/>
	<path style="fill:#8C734B;" d="M159,162.6l-0.6-4.3h-1.2l-1.2,4.3h-3.8l2.7-10h7.9c1.6,0,2.3,0.5,1.9,2.2l-0.5,1.9
		c-0.2,0.9-0.7,1.5-1.9,1.5l0.9,4.3H159z M160.9,154.8c0.1-0.5,0-0.6-0.4-0.6h-2.2l-0.6,2.3h2.2c0.4,0,0.6-0.2,0.7-0.6L160.9,154.8z
		"/>
	<path style="fill:#FFFFFF;" d="M174.7,151.7c-1.7,0-3.1,1.1-3.6,3l-0.6,2.4c-0.1,0.3-0.2,0.8-0.2,1.2c0,0.4,0.1,0.9,0.4,1.3
		c0.2,0.2,0.4,0.4,0.6,0.5h-1.6l-1,3.6h8.6c1.4,0,3.1-0.5,3.8-3.1l0.7-2.6c0.1-0.3,0.1-0.6,0.1-0.8c0-0.6-0.2-1-0.4-1.3
		c-0.2-0.2-0.3-0.4-0.6-0.5h1.6l1-3.6H174.7z"/>
	<path style="fill:#8C734B;" d="M177.3,162.6H170l0.4-1.7h5.3c0.5,0,0.6-0.1,0.7-0.4l0.2-0.7c0.1-0.3,0-0.4-0.5-0.4h-3.3
		c-1.4,0-1.9-0.5-1.5-2.1l0.6-2.4c0.3-1.2,1.2-2.3,2.6-2.3h7.6l-0.4,1.7h-5.2c-0.5,0-0.7,0.1-0.8,0.4l-0.2,0.6
		c-0.1,0.3,0.1,0.4,0.6,0.4h2.8c1.4,0,2.3,0.6,1.9,1.9l-0.7,2.6C179.8,161.8,178.9,162.6,177.3,162.6"/>
	<polygon style="fill:#FFFFFF;" points="188.6,151.7 185.4,163.5 191.2,163.5 194.4,151.7 	"/>
	<polygon style="fill:#8C734B;" points="186.7,162.6 189.3,152.6 193.1,152.6 190.5,162.6 	"/>
	<path style="fill:#FFFFFF;" d="M199.2,151.7l-1,3.6h3.1c-0.5,1.8-2.2,8.3-2.2,8.3h5.8c0,0,1.9-7.1,2.2-8.3h3.1l1-3.6H199.2z"/>
	<polygon style="fill:#8C734B;" points="206.5,154.3 204.3,162.6 200.5,162.6 202.7,154.3 199.5,154.3 200,152.6 210.1,152.6 
		209.6,154.3 	"/>
	<path style="fill:#FFFFFF;" d="M225.8,151.7c0,0-1.8,2.1-2.9,3.3c-0.5-1.2-1.2-3.3-1.2-3.3h-6.5c0,0,2.5,6.6,2.7,7.1
		c-0.1,0.5-1.3,4.8-1.3,4.8h5.8c0,0,1-3.8,1.1-4.2c0.3-0.3,6.9-7.7,6.9-7.7H225.8z"/>
	<polygon style="fill:#8C734B;" points="226.3,152.6 222.6,156.8 221,152.6 216.5,152.6 218.8,158.7 217.8,162.6 221.6,162.6 
		222.6,158.9 228.2,152.6 	"/>
</g>
</svg>
