<?xml version="1.0" encoding="UTF-8" standalone="no"?>
<svg xmlns:rdf="http://www.w3.org/1999/02/22-rdf-syntax-ns#" xmlns="http://www.w3.org/2000/svg" xml:space="preserve" height="126.4" viewBox="0 0 120.17875 126.40375" width="120.18" version="1.1" xmlns:cc="http://creativecommons.org/ns#" xmlns:dc="http://purl.org/dc/elements/1.1/"><g transform="matrix(1.25 0 0 -1.25 -749.24 398.61)"><g transform="translate(.73544 .73544)"><path d="m639.41 217.77c-10.951 0-20.436 2.48-26.463 4.562-4.492 1.553-7.113 3.053-8.834 4.061-1.984 1.162-4.721 3.218-4.721 3.218l7.205 5.667 13.397 65.072-5.053 5.847s3.024 1.821 4.743 2.673c1.517 0.751 6.247 3.089 13.2 4.978 8.412 2.286 16.733 3.445 24.731 3.445 17.524 0 30.298-5.497 32.113-6.216 2.094-0.828 4.207-2.127 4.207-2.127l-5.8-28.465h-31.657l1.567 7.953h-8.639l-8.631-41.811h8.629l1.613 7.877h31.709l-5.98-28.828s-1.971-0.826-3.135-1.281c-1.166-0.454-17.056-6.625-34.201-6.625" fill="#00245d"/><path d="m639.41 222.79c-10.254 0-19.146 2.327-24.824 4.288-4.089 1.413-7.102 3.149-7.102 3.149l3.783 2.894 14.213 68.96-2.422 2.874s4.58 2.263 11.142 4.045c6.132 1.667 14.384 3.27 23.415 3.27 16.488 0 30.198-5.561 30.33-5.617l0.388-0.167-4.296-20.98h-21.451l1.566 7.951h-18.838l-10.703-51.853h18.891l1.613 7.877h21.455l-4.302-20.984-0.276-0.101c-0.155-0.057-16.395-5.606-32.582-5.606" fill="#005daa"/><path d="m657.19 309.68c-15.563 0-29.835-5.467-29.835-5.467l0.954-1.039-14.658-71.098-1.527-1.184s12.147-5.502 27.713-5.502c15.08 0 30.203 4.947 30.203 4.947l3.394 16.552h-16.244l-1.613-7.876h-27.996l4.318 2.077 10.918 52.89-3.471 2.076h27.999l-1.625-7.951h16.243l3.403 16.628s-13.096 4.947-28.176 4.947" fill="#c8c8c8"/><path d="m657.19 308.64c-12.348 0-24.01-3.535-28.008-4.885l0.249-0.272-14.843-72.003-0.408-0.311c3.787-1.441 13.807-4.742 25.657-4.742 13.089 0 26.517 3.82 29.306 4.709l3.019 14.714h-14.124l-1.614-7.878h-33.4l7.963 3.828 10.666 51.664-6.06 3.628h33.023l-1.623-7.95h14.127l3.05 14.924c-2.982 1.061-14.445 4.574-26.98 4.574" fill="#fff"/></g></g></svg>
