<?xml version="1.0" encoding="UTF-8" standalone="no"?>
<svg
   xmlns:dc="http://purl.org/dc/elements/1.1/"
   xmlns:cc="http://creativecommons.org/ns#"
   xmlns:rdf="http://www.w3.org/1999/02/22-rdf-syntax-ns#"
   xmlns:svg="http://www.w3.org/2000/svg"
   xmlns="http://www.w3.org/2000/svg"
   xmlns:sodipodi="http://sodipodi.sourceforge.net/DTD/sodipodi-0.dtd"
   xmlns:inkscape="http://www.inkscape.org/namespaces/inkscape"
   height="170"
   viewBox="0 0 200 170.00401"
   width="200"
   id="svg2985"
   version="1.1"
   inkscape:version="0.48.1 "
   sodipodi:docname="liberty flames text logo.svg">
  <metadata
     id="metadata3001">
    <rdf:RDF>
      <cc:Work
         rdf:about="">
        <dc:format>image/svg+xml</dc:format>
        <dc:type
           rdf:resource="http://purl.org/dc/dcmitype/StillImage" />
      </cc:Work>
    </rdf:RDF>
  </metadata>
  <defs
     id="defs2999" />
  <sodipodi:namedview
     pagecolor="#ffffff"
     bordercolor="#666666"
     borderopacity="1"
     objecttolerance="10"
     gridtolerance="10"
     guidetolerance="10"
     inkscape:pageopacity="0"
     inkscape:pageshadow="2"
     inkscape:window-width="1280"
     inkscape:window-height="657"
     id="namedview2997"
     showgrid="false"
     inkscape:zoom="1.3744568"
     inkscape:cx="125"
     inkscape:cy="105.86"
     inkscape:window-x="0"
     inkscape:window-y="0"
     inkscape:window-maximized="1"
     inkscape:current-layer="svg2985" />
  <g
     id="g3778"
     transform="matrix(0.78339616,0,0,0.78339616,2.5682224,2.3979466)">
    <path
       style="fill:#0a254e"
       inkscape:connector-curvature="0"
       id="path2991"
       d="m 171.05,58.7125 -4.99512,22.29125 7.04712,0.576787 c 2.20738,0.181175 9.68712,1.105513 13.19625,5.342625 0.70989,0.857788 2.8765,3.468125 1.70813,9.579875 l -9.59101,44.897503 c -2.35887,10.39325 -4.56987,14.305 -7.38362,17.255 -2.5105,2.64362 -6.31875,4.10037 -10.72237,4.10037 -12.54875,0 -14.37876,-7.08787 -14.6525,-12.41575 -0.13312,-2.45137 0.17007,-5.64587 0.87257,-9.22862 l 17.8325,-82.398753 h -79.7 l -5.0025,22.295 7.0545,0.573088 c 2.188875,0.181175 9.594625,1.090725 13.1325,5.26875 1.9005,2.25175 2.51425,5.242875 1.85975,9.154625 l -0.99459,4.936 H 64.651613 l 21.20375,-99.695 H 6.9241125 l -4.991375,22.2575 10.2860005,1.042662 c 3.501375,0.654425 8.174875,2.15925 10.489375,5.583 0.584175,0.872575 2.36625,3.5125 1.068525,9.49475 L 0.7566375,147.83316 H 92.850388 l -0.34755,2.9875 c -0.0555,0.50284 -0.114625,1.00568 -0.170076,1.51225 -0.876274,8.6185 -0.1331,16.56375 2.21475,23.62625 0.391925,1.3015 0.8467,2.54375 1.35325,3.74538 5.568248,13.1325 17.329998,23.0525 32.273748,27.22 9.35425,2.60662 19.2,4.04487 27.73,4.04487 23.97,0 40.82625,-5.98237 53.05375,-18.82375 9.4615,-9.94962 15.99875,-23.6625 19.97,-41.935 l 19.82875,-91.498748 h -77.7075 z" />
    <path
       style="fill:#c8102e;fill-opacity:1"
       inkscape:connector-curvature="0"
       id="path2993"
       d="m 15.445,11.873 -0.525,2.352 c 3.69,0.765 8.03,2.215 11.746,4.951 1.823,1.335 3.495,2.975 4.867,4.998 3.258,4.832 4.145,10.772 2.655,17.656 l -19.334,90.88 -0.954,4.47 h 101.45 5.03 2.78 4.78 0.25 0.5 l 14.68,-67.838 h -5.44 -43.018 -1.726 l -0.536,2.361 c 3.694,0.762 7.99,2.211 11.68,4.906 1.31,0.954 2.54,2.06 3.64,3.362 3.97,4.688 5.42,10.9 4.2,17.955 l -0.02,0.115 -2.72,13.519 h -7.81 -50.097 -7.812 l 0.951,-4.48 20.254,-95.207 H 59.477 17.246 15.445 z m 164.12,57.467 -0.53,2.363 c 3.72,0.769 8.05,2.23 11.75,4.951 1.34,0.987 2.59,2.133 3.7,3.471 4,4.829 5.36,11.215 3.94,18.48 l -9.63,45.115 c -2.54,11.21 -5.26,17.23 -10.05,22.26 -4.54,4.77 -11.09,7.4 -18.43,7.4 -1.45,0 -2.82,-0.1 -4.15,-0.25 -1.2,0.15 -2.42,0.25 -3.67,0.25 -9.44,0 -16.67,-3.29 -20.94,-9.2 -1.18,-1.63 -2.11,-3.46 -2.83,-5.46 l 0.03,0.09 c 0,0 -1,-0.22 -2.84,-0.28 l -5.2,-0.19 c -0.19,-0.01 -0.52,-0.02 -0.94,-0.03 -0.31,0 -0.67,-0.01 -1.09,-0.01 -0.73,0 -1.51,0.07 -2.32,0.16 -4.22,0.54 -9.19,2.4 -11.09,4.91 -2.65,3.48 -0.87,9.13 0.42,12.18 1.32,3.09 3.09,5.96 5.26,8.54 4.92,5.88 11.88,10.29 20.08,12.58 7.23,2.02 14.74,3.25 21.51,3.57 18.47,-0.67 31.55,-5.62 40.89,-15.44 8.09,-8.49 13.74,-20.55 17.29,-36.85 l 17.03,-78.61 h -5.46 -40.96 -1.77 z" />
    <path
       style="fill:#ffffff"
       inkscape:connector-curvature="0"
       id="path2995"
       d="m 64.916,11.873 -20.258,95.207 -0.949,4.49 h 7.816 l 0.95,-4.49 20.254,-95.207 h -5.438 -2.375 z m 78.464,57.465 -14.69,67.852 c 0,0 -1.11,5.45 -1.03,12.08 -0.08,-6.65 1.03,-12.15 1.03,-12.15 l -0.38,1.78 c -0.9,4.53 -1.27,8.55 -1.09,11.94 0.15,2.8 0.66,5.36 1.47,7.69 l 0.04,0.18 c 0.72,2.01 1.65,3.84 2.83,5.47 4.27,5.91 11.5,9.2 20.94,9.2 1.25,0 2.47,-0.11 3.66,-0.25 -7.4,-0.84 -13.17,-3.94 -16.79,-8.95 -2.56,-3.54 -4.05,-8.02 -4.33,-13.28 -0.18,-3.39 0.18,-7.4 1.08,-11.94 l 15.07,-69.622 h -5.45 -2.36 z m 84.38,0.002 -17.04,78.61 c -3.54,16.3 -9.19,28.36 -17.28,36.85 -9.34,9.82 -22.41,14.77 -40.89,15.44 1.15,0.05 2.27,0.09 3.36,0.09 20.86,0 35.27,-4.94 45.35,-15.53 8.08,-8.49 13.74,-20.55 17.28,-36.85 l 17.03,-78.61 h -5.45 -2.36 z" />
  </g>
</svg>
