<svg xmlns="http://www.w3.org/2000/svg" width="248" height="187.71" viewBox="0 0 248 187.71">
 <g fill-rule="evenodd" stroke-width="4.7375">
  <path d="m233.11 80.336v-35.114l12.938-5.7182v-38.412h-71.001c-10.242 0-14.814 4.8086-17.368 8.428l-33.589 47.617-33.579-47.617c-2.5535-3.6195-7.13-8.428-17.368-8.428h-71.001v38.412l12.929 5.7182v35.114l-13.976 13.72 13.985 13.298-0.0095 35.38-12.933 7.2247v36.839h104.01v-37.715l-12.943-6.4146v-19.599l30.889 43.803 30.889-43.803v19.599l-12.943 6.4146v37.711h104.01v-36.834l-12.933-7.2247-5e-3 -35.38 13.985-13.298z" fill="#fff"/>
  <path d="m4.0984 3.1082v34.93l11.622 5.1354c1.227 0.50218 1.3232 1.2114 1.3232 2.23l-0.009238 35.735-13.056 12.806 13.056 12.417v35.957c0 1.3834-0.2673 1.7237-1.1011 2.2022-0.82433 0.47375-11.835 6.6066-11.835 6.6066v33.486h99.849v-34.291l-11.631-5.7738c-1.2317-0.50218-1.3324-1.2159-1.3324-2.2392v-25.955l33.015 46.792 33.005-46.792v25.955c0 1.0233-0.0914 1.737-1.3232 2.2392l-11.631 5.7738v34.291h99.849v-33.486s-11.005-6.1329-11.835-6.6066c-0.82907-0.47375-1.1104-0.82336-1.1104-2.2114v-35.948l13.056-12.408-13.056-12.815v-35.735c0-1.0186 0.0962-1.7278 1.3232-2.23l11.622-5.1354v-34.93h-68.934c-9.1197 0-13.155 3.9882-15.656 7.5319l-35.309 50.068-35.319-50.068c-2.5061-3.5389-6.5363-7.5319-15.656-7.5319zm8.6978 8.7348 31.155 0.03701c2.165 0.22266 4.1862 1.2443 5.9959 2.6371 4.079-2.7335 6.7361-2.6741 6.7361-2.6741h16.22c5.4055 0.05211 7.5593 2.4376 8.9569 4.2379l42.138 59.728 42.129-59.728c0.74852-0.96171 1.7079-2.0804 3.257-2.9332 1.3549-0.74379 3.1747-1.281 5.6998-1.3047h16.22s2.6666-0.05944 6.7362 2.6741c2.1792-1.6676 3.3874-2.2913 6.7084-2.6371l30.451-0.03701v21.522c0.0142 0-12.945 1.066-12.945 12.038v35.735c0 4.8654 2.9702 7.0137 2.9702 7.0137l6.6806 5.7923-6.5788 5.3297s-3.072 2.2318-3.072 7.0878v35.948c0 9.9298 9.0649 10.853 12.945 12.047v21.522h-34.208c-1.6913 0-3.6262-0.30846-7.023-3.1368-3.3968 2.8283-5.3412 3.1368-7.023 3.1368h-34.208v-21.374c2.4635-0.78643 12.945-2.204 12.945-12.195v-53.39l-41.694 59.117-41.694-59.117v53.399c0 9.9867 10.491 11.4 12.945 12.186v21.374h-34.199c-1.6771 0-3.6217-0.30846-7.0137-3.1368-3.3968 2.8283-5.3504 3.1368-7.0322 3.1368h-34.199v-21.522c3.88-1.1986 12.945-2.1175 12.945-12.047v-35.948c0-4.8512-3.072-7.0878-3.072-7.0878l-6.5788-5.3297 6.6806-5.7923s2.9609-2.1578 2.9609-7.0137l0.0092-35.735c0-10.972-12.95-12.043-12.945-12.038z" fill="#00529b"/>
  <path d="m124.09 135.79 48.773-69.149v75.743c0 14.198-12.948 17.557-12.948 17.557v8.8828h27.099c1.6108 0 7.021-5.9787 7.021-5.9787s5.4055 5.9787 7.021 5.9787h27.113v-8.8828s-12.948-3.3636-12.948-17.557v-35.948h5e-3c0-8.1248 6.8457-12.412 6.8457-12.412s-6.8457-4.6712-6.8457-12.801v-35.721c0-14.198 12.943-17.552 12.943-17.552v-8.8923h-23.332c-2.7572 0.28425-6.7273 5.9551-6.7273 5.9551s-3.97-5.6708-6.7273-5.9551h-16.226c-1.4639 0.01421-2.2835 0.16581-3.1647 1.2318l-47.901 67.922-47.896-67.922c-0.89065-1.0659-1.7055-1.2175-3.1741-1.2318h-16.216c-2.7572 0.28425-6.7273 5.9551-6.7273 5.9551s-3.97-5.6708-6.7225-5.9551h-23.337v8.8876s12.948 3.3542 12.948 17.552v35.73h-0.0095c0 8.1201-6.841 12.801-6.841 12.801s6.841 4.2827 6.841 12.412l0.0095-5e-3v35.948c0 14.198-12.948 17.557-12.948 17.557v8.8828h27.113c1.6108 0 7.021-5.9787 7.021-5.9787s5.4055 5.9787 7.0163 5.9787h27.099v-8.8828s-12.938-3.3636-12.938-17.557v-75.743l48.763 69.149" fill="#ffd204"/>
 </g>
</svg>