<svg xmlns="http://www.w3.org/2000/svg" height="131.5" viewBox="0 0 198 131.49892" width="198"><g transform="matrix(.98 0 0 .98 .71209 1.0506)"><path fill="#d3d3d3" d="m61.25 0 3.5996 3.1797c5.94 4.74 5.2695 16.621 5.2695 16.621v0.03906 12.029c-9.36-5.32-18.078-7.9082-28.568-7.9082-12.17 0-22.14 3.0598-30.48 9.3398-0.12 0.07-0.23961 0.14828-0.34961 0.23828 0.01 0-0.25977 0.2107-0.25976 0.2207-0.73 0.58-1.3306 1.0801-1.8906 1.5801-4.85 4.34-5.6803 7.1094-5.8203 7.8594l-0.0108 0.061-0.0898 0.49 0.1504 0.551c1.62 5.86 8.3482 10.129 19.978 12.699 5.5 1.22 12.151 2.04 18.721 2.33l0.2207 0.0098c4.7 0.25 9.0798 0.46094 13.34 1.2109 2.18 0.38 3.4002 0.67 4.4902 1 0 0 2.5789 0.84906 0.12891 2.5391-9 5.74-20.459 5.4492-20.459 5.4492h-0.05078-0.05078c-0.41 0.02-10.13 0.43102-19.51-5.959 0 0-3.8585-2.3303-2.4785-6.5703l-17.131 10.961s2.1399 2.0989 2.1699 2.1289c1.37 1.42 13.741 13.511 36.811 13.531h0.03906c16.8-0.29 26.271-5.2115 32.061-9.2715 5.93-4.16 8.7905-8.5596 9.2305-9.3496 0.02-0.03 0.72852-1.0898 0.72852-1.0898l-0.64844-1.3301c0 0.01-0.15039-0.31055-0.15039-0.31055-0.74-1.61-2.46-5.3701-8-8.8301-9.9-6.71-28.26-7.1387-28.26-7.1387-1.3-0.05-6.6304-0.29133-11.4-0.86133-2.86-0.35-4.7695-0.62-6.2695-1-5.77-1.25-0.03125-3.6602-0.03125-3.6602 3.95-1.9 9.01-2.75 15.5-2.75 17.98 0 30.031 11.01 36.301 16.33 0.38 0.33 6.5497 5.85 13.18 12-8.07 6.36-15.289 10.54-19.039 10.98l-2.1504 0.25977v24.602c-0.01 0.7 0.04008 5.6984 3.8301 11.818 3.49 5.65 11.019 13.351 27.049 17.951 0.01 0 0.28125 0.0801 0.28125 0.0801 0.61 0.17 1.0805 0.0401 1.4805-0.0899 15.95-4.6 23.44-12.301 26.92-17.941 3.76-6.11 3.8186-11.118 3.8086-11.818v-24.611l-2.1504-0.25976c-3.71-0.44-10.77-4.5292-18.92-10.949 2.48-2.18 5.0802-4.5106 7.6602-6.8906 0.90583 2.9564 2.5473 6.3075 5.541 9.0703 6.52 6.29 18.249 13.789 37.119 13.789 13.43 0 24.721-3.6798 34.551-11.26l2.75-2.1191-17.01-10.871c0.31 4.76-2.6504 6.1113-2.6504 6.1113l-0.0195 0.0098c-5.34 2.76-11.02 4.0488-17.85 4.0488-12.7 0-20.56-4.8884-25.99-9.1484-1.93-1.49-2.7511-3.2507-2.8711-5.2207 0 0 0.00023-0.05984-0.01-0.08984v-5.4805l1.25-0.93945c5.35-4.02 14.041-9.3613 27.621-9.3613 6.83 0 12.5 1.2908 17.85 4.0508 0 0 2.9897 1.2411 2.6797 6.1211l17.01-10.87-2.75-2.119c-9.82-7.57-21.121-11.26-34.551-11.26-10.85 0-20.139 2.4084-29.109 7.5684 0-4.74-0.01-11.639-0.01-11.639v-0.06055l-0.01-0.75s-0.46078-11.219 5.1992-15.869l3.65-3.1905-31.7-0.0195 2.0391 3.6504c0 0.01 0.58007 1.0896 0.58007 2.5996 0 1.25-0.38992 2.4598-1.1699 3.5898 0.01-0.01-6.9703 10.07-10.32 14.92-2.57-3.719-10.321-14.929-10.321-14.929-0.77-1.1299-1.16-2.34-1.16-3.58 0-1.51 0.58008-2.5896 0.58008-2.5996l2.031-3.6504h-31.73zm23.49 26.029c4.9 6.85 15.07 21.041 15.07 21.041 0.01 0.02 2.0195 2.7891 2.0195 2.7891l2.0391-2.7891s15.04-21.001 15.07-21.041c0 4.1-0.00023 10.37 0.01 15.76l-1.3691 1.1816c-2.84 2.43-6.5894 5.9493-9.6094 8.7793 0 0-2.1612 2.0205-2.2012 2.0605-0.75 0.67-2.2791 2.0086-4.0391 3.5586-2.06-1.95-5.3101-5.0288-5.3301-5.0488-4.06-4.06-8.0902-7.5411-11.66-10.371v-15.92z"/><path fill="#db0024" d="m83.9 87.01c2.6-1.02 8.09-3.85 17.93-11.71 0.11 0.09 0.37 0.3 0.37 0.3 9.57 7.64 14.9 10.42 17.45 11.42 0 3.7-0.01 12.58-0.01 13.05 0 10.42-14.16 16.38-17.83 17.76-3.69-1.37-17.91-7.33-17.91-17.76v-5.52c0.01-2.66 0.01-5.66 0-7.54"/><path fill="#fff" d="m98.89 85.3c-0.93 0-3.75 1.53-6.35 5.23-0.01 0.01-0.65 0.74-0.65 2.91l0.01 6.81c0.42 6.65 6.9 11.14 8.96 11.14h2.44c2.13 0 6.2-4.78 6.2-5.87v-6.64c0-0.03-0.01-0.38-0.01-0.38 0-0.9 0-3.01-1.54-3.01h-7.86l-0.05 0.09c-0.06 0.12-0.08 0.15 2.35 3.73l0.12 0.18 0.14-0.17c0.29-0.35 0.69-0.81 2.85-0.83v7.48c0 1.27-0.87 2.37-1.87 2.37-1.89 0-7.44-2.07-7.68-8.41v-5.8c0-4.48 0.22-5.44 2.51-5.44h5.17c0.25 0 1.29 0.15 1.72 0.89l0.14 0.24 2.89-4.54-9.49 0.02z"/><path fill="#06315b" d="m89.32 2.1602-22.471 0.050781 0.63086 0.5293c5.23 4.41 4.7793 17.021 4.7793 17.141v13.209c2.47 1.55 6.3896 4.1211 10.35 7.1211 0-3.94 0.0098-19.33 0.0098-20.83 1.04 1.44 18.941 26.449 18.941 26.449l0.28906 0.40039 0.29101-0.40039s15.799-22.059 18.939-26.449c0 1.72 0.01 32.959 0.01 32.959s-0.31953 8.9295 5.9805 14.689c6.26 6.03 17.451 13.191 35.641 13.191 12.93 0 23.808-3.5405 33.238-10.811l0.33984-0.25976-11.67-7.4512-0.0898 0.41992c-0.59 2.69-3.1985 4.0017-3.2285 4.0117-5.66 2.93-11.65 4.2891-18.83 4.2891-13.35 0-21.611-5.1296-27.311-9.5996-1.62-1.25-3.4895-3.4398-3.6895-6.8398v-0.11133-17.979l-0.0215-15.99c0-0.02-0.01-0.32031-0.01-0.82031 0-2.89 0.34102-12.58 4.791-16.33l0.62891-0.5293-22.479-0.060547 0.25 0.44922c0.06 0.1 0.84961 1.5606 0.84961 3.6406 0 1.4-0.36078 3.0808-1.5508 4.8008 0 0-11.6 16.769-12.08 17.469-0.48-0.69-12.08-17.469-12.08-17.469-1.189-1.7282-1.548-3.409-1.548-4.799 0-2.08 0.79961-3.5406 0.84961-3.6406l0.25-0.44922zm73.38 23.94c-10.88 0-20.229 2.5597-29.139 7.9297v11.67c5.67-4.26 14.82-9.7891 28.91-9.7891 7.19 0 13.17 1.3591 18.83 4.2891 0.03 0.02 2.6385 1.3217 3.2285 4.0117l0.0898 0.41992 11.67-7.4512-0.34961-0.26953c-9.44-7.27-20.31-10.811-33.24-10.811zm-121.16 0.03125c-12.15 0-21.719 3.1993-29.369 9.0293-0.03 0-0.11914 0.07031-0.11914 0.07031l-0.27148 0.21875c-0.71 0.55-1.2788 1.03-1.7988 1.5-4.64 4.15-5.1304 6.5602-5.1504 6.6602l-0.00977 0.07031 0.019531 0.07031c3.72 12.67 35.56 13.391 36.98 13.471 9.02 0.48 21.3 1.5997 22.5 4.9297 0.38 1.04-1.9498 3.1205-4.5098 4.5605-5.85 3.02-12.86 4.9883-20.6 4.9883-0.13 0.01-10.72 0.54992-20.82-6.3301-0.05-0.03-2.8798-1.7095-3.2598-4.0195l-0.07031-0.44922-11.65 7.4297 0.26953 0.25977c0.14 0.13 12.051 12.881 35.301 12.891 31.47-0.55 39.499-17.59 39.469-17.58l0.10156-0.14062-0.11133-0.23047c-1.15-2.38-3.8995-13.49-34.52-15.08-0.21-0.01-20.569-0.58008-23.359-4.3301-0.22-0.3-0.36133-0.57891-0.36133-0.87891 0-0.05 0.0017-0.11016 0.01172-0.16016 0.23-0.66 0.68891-1.3102 1.3789-1.9102 0.33-0.27 0.71969-0.55938 1.1797-0.85938l0.19141-0.09961c4.35-2.81 10.199-4.291 18.809-4.291 18.78 0 31.251 11.38 37.701 16.85 0.06 0.05 6.589 5.8898 13.459 12.26 2.22-1.85 5.2098-4.3884 7.2598-6.1484l-5.2793-4.9902c-11.92-11.92-23.47-18.711-23.58-18.781-9.74-6.04-18.831-8.9785-29.791-8.9785zm77.432 18.469c-3.52 3.02-8.4 7.6708-11.75 10.801 0-0.01-11.511 10.159-13.371 11.639-7.48 6.04-16.269 11.831-21.369 12.441l-0.26953 0.0293v22.721c0 0.19-0.08024 4.8797 3.5098 10.68 3.3 5.33 10.448 12.61 25.818 17.02 0.01 0 0.27149 0.0801 0.27149 0.0801 0.01 0.01 0.28906-0.0801 0.28906-0.0801 15.3-4.41 22.431-11.69 25.711-17.02 3.58-5.82 3.5-10.499 3.5-10.699v-22.711l-0.27149-0.0293c-4.92-0.59-13.279-6.0806-20.299-11.641-2.28 1.93-5.2709 4.4598-7.2109 6.0898 11.61 9.28 17 11.329 18.26 11.529 0 0.52-0.01 14.611-0.01 14.611 0 12.7-17.549 19.189-19.969 20.029-2.43-0.83-20.051-7.3293-20.051-20.029 0 0 0.01023-12.601-0.0098-14.611 1.31-0.22 7.1507-2.3698 20.221-13.01l0.0391-0.0293c0.02-0.02 7.3008-6.1797 7.3008-6.1797 2.95-2.55 6.3894-5.6303 10.109-9.0703-0.39-1.71-0.44922-3.8105-0.44922-3.8105v-8.75z"/></g></svg>
