<svg xmlns="http://www.w3.org/2000/svg" width="246" height="85.084" viewBox="0 0 246 85.084">
 <g transform="matrix(1.3333 0 0 -1.3333 -411.53 236.04)">
  <g transform="matrix(1.058 0 0 1.058 -24.962 -6.3494)">
   <g>
    <path d="m489.42 172.85-173.67 2e-3 9.9289-14.723c-0.62715-1.5385-1.0694-3.1383-1.3192-4.7773-0.35785-2.3519-0.29546-4.7153 0.18557-7.0248 0.50305-2.4132 1.4252-4.5841 2.7625-6.4821 0.25715-0.35624 0.53264-0.70469 0.82695-1.0444l-10.793-3.0862 1.1378-5.3764c0.58379-2.7582 1.2788-4.8536 2.1156-6.3889 1.9-3.5351 4.8874-6.2825 8.8803-8.1679 3.2486-1.58 7.312-2.3482 12.422-2.3482 3.7358 0 7.168 0.38675 10.238 1.1591 2.4687 0.65078 4.9709 1.8154 7.4499 3.4697 2.6251 1.7684 4.7814 3.8127 6.4614 6.1196l-1.5601-10.751h25.466l2.4976 17.211c0.80837-6.4238 3.9687-11.352 9.226-14.331 3.419-1.9358 7.9713-2.8765 13.918-2.8765 3.9054 0 7.0962 0.3427 9.752 1.0467 4.833 1.2759 8.929 3.7957 12.169 7.4827 1.1089 1.2557 2.0762 2.5946 2.9054 3.9992l-1.8184-12.529h44.821l3.3713 23.233h-2.627l5.2507 36.185" fill="#d81e05"/>
    <path d="m351.03 169.53-29.034-9.2e-4 7.0346-10.431 0.45262-0.6586c-0.92398-1.7656-1.5424-3.6444-1.839-5.5893-0.29797-1.9597-0.24638-3.9272 0.1539-5.8481 0.40969-1.9666 1.1463-3.7143 2.2056-5.2177 1.0476-1.4534 2.5212-2.757 4.379-3.8743 0.30142-0.18168 0.60624-0.35402 0.91431-0.51781l-14.064-4.0219 0.49664-2.3471c0.51612-2.4389 1.1045-4.2436 1.792-5.505 1.5589-2.9008 4.0568-5.1753 7.3907-6.7452 2.7878-1.3605 6.3816-2.0222 10.987-2.0222 3.464 0 6.6141 0.3509 9.3911 1.0494 2.114 0.55764 4.2781 1.5695 6.4415 3.0131 5.1709 3.4833 8.2386 8.1752 9.1179 13.945 0.35166 2.3104 0.25274 4.5392-0.29435 6.6253-0.62944 2.396-1.7612 4.333-3.375 5.7664-1.441 1.266-3.3011 2.3022-5.6347 3.1337l12.714 4.7691-0.3545 2.0934c-0.21976 1.2981-0.45704 2.2845-0.73185 3.0339-0.65949 1.7576-1.7612 3.418-3.2896 4.9499-2.9993 2.9589-7.8528 4.3975-14.837 4.3975h-0.0148zm68.26 0-52.469-9.2e-4 7.4811-11.594-5.9768-41.187h18.756l7.0077 48.293 4.6972-7.091-2.6337-17.682c-0.46153-3.099-0.6463-5.499-0.56418-7.3343 0.27618-6.3669 2.8753-10.988 7.7258-13.737 2.9066-1.6456 6.9239-2.4456 12.282-2.4456 3.6152 0 6.5287 0.3067 8.9045 0.93615 4.1838 1.105 7.7271 3.2837 10.527 6.4704 1.7342 1.9638 3.0851 4.1483 4.0141 6.4929 0.90448 2.282 1.6103 5.1798 2.1586 8.8595l3.588 24.089 3.6344-5.6317-5.9811-41.216h38.11l2.4076 16.592h-19.354l0.28595 1.9718h16.728l2.3061 15.894h-16.727l0.25067 1.7275h16.726l2.4086 16.592-58.691 3e-3 -4.3336-29.093c-0.53058-3.5574-1.0927-4.9957-1.3629-5.504-0.47919-0.86985-1.3589-1.8686-3.9361-1.8686-2.2092 0-2.4883 0.72834-2.6005 1.0215-0.0782 0.20049-0.43888 1.4112 0.18414 5.5927zm-69.799-14.722c0.87856 0 1.5186-0.2487 2.0934-0.82493 0.4035-0.39615 0.68856-1.1714 0.82459-2.2436l9e-3 -0.0749-2.4311 0.54737c-0.98591 0.22664-1.9509 0.55202-2.8357 0.95161-0.20301 0.0954-0.31762 0.17473-0.37634 0.22244 6.9e-4 6e-3 2e-3 0.0113 3e-3 0.0175 0.0243 0.16012 0.0753 0.49234 0.80678 0.90524 0.59549 0.33582 1.219 0.49932 1.9062 0.49932zm-9.2859-19.212c4.2455-0.90012 5.4541-1.304 5.7826-1.4382 0.46887-0.19063 0.61101-0.3498 0.61995-0.3498h2.3e-4c2e-3 -0.0138 0.0101-0.0753-9e-3 -0.20262-0.0399-0.26127-0.10363-0.35043-0.36559-0.49059-0.5432-0.29728-1.2448-0.44791-2.085-0.44791-2.3845 0-3.0707 0.89332-3.3068 1.2009-0.0346 0.0443-0.32595 0.44564-0.63608 1.7282z"/>
    <path d="m351.03 166.96-24.195-6.9e-4 4.3162-6.4005 1.3763-2.002c-0.17548-0.27114-0.34353-0.54414-0.50066-0.82056l-0.1455-0.26545c-0.85929-1.5807-1.4255-3.2484-1.6932-5.005-0.25279-1.6615-0.2108-3.3067 0.12869-4.9358 0.33927-1.6284 0.93095-3.0409 1.7742-4.2379 0.84621-1.1742 2.0516-2.2323 3.6179-3.1737 1.5656-0.94233 3.2062-1.602 4.922-1.9782 3.3528-0.7095 5.4614-1.2412 6.3262-1.5954 1.6899-0.68747 2.4178-1.7954 2.1855-3.3236-0.16241-1.0639-0.72025-1.8505-1.674-2.3602-0.932-0.51016-2.0387-0.76411-3.3205-0.76411-2.4354 0-4.2142 0.73108-5.3373 2.1932-0.4824 0.62004-0.88152 1.651-1.1956 3.0914l-13.369-3.8225c0.4597-2.1718 0.97381-3.7779 1.5413-4.8195 1.2983-2.4152 3.3829-4.2989 6.253-5.6505 2.4056-1.1742 5.6919-1.7618 9.8578-1.7618 3.2686 0 6.1801 0.32163 8.7348 0.96438 1.8473 0.48745 3.7341 1.3734 5.6602 2.6589 4.571 3.0795 7.2414 7.1464 8.011 12.198 0.30027 1.9723 0.22009 3.8332-0.23891 5.5846-0.5003 1.9046-1.3618 3.4005-2.5847 4.4869-1.7906 1.5727-4.5328 2.7803-8.2284 3.622l-3.8414 0.86491c-1.1568 0.26586-2.2739 0.64189-3.3531 1.13-1.4162 0.66477-2.0231 1.6504-1.8242 2.9576 0.17571 1.1522 0.87013 2.0724 2.0864 2.7587 0.98178 0.55351 2.0377 0.83131 3.1707 0.83131 1.5589 0 2.8579-0.52085 3.8961-1.5618 0.83589-0.82052 1.361-2.072 1.5746-3.7564l12.405 4.6532c-0.19131 1.1304-0.39245 1.9832-0.60349 2.5594-0.53218 1.4181-1.4279 2.7589-2.6882 4.0222-2.4701 2.4368-6.8127 3.6559-13.03 3.6559-7e-3 0-0.0136-2.3e-4 -0.0205-2.3e-4zm40.736 0-20.223-6.9e-4 5.4425-8.4344 1e-3 9.2e-4 -5.6881-39.201h13.555zm24.538 0-20.398-6.9e-4 5.5675-8.4048 4e-3 2e-3 -2.7802-18.665c-0.43286-2.9054-0.6125-5.1867-0.53864-6.8434 0.23673-5.4482 2.3781-9.318 6.4227-11.61 2.4863-1.4071 6.1579-2.1112 11.015-2.1112 3.3594 0 6.1083 0.28419 8.2469 0.85147 3.6968 0.97582 6.7829 2.8707 9.256 5.6858 1.5442 1.7479 2.7277 3.6606 3.5507 5.7368 0.82305 2.0773 1.4913 4.8405 2.0054 8.2909l4.0319 27.068h-13.577l-4.0067-26.898c-0.44983-3.0185-1.0012-5.1407-1.6536-6.3666-1.1745-2.1333-3.2378-3.2002-6.1905-3.2002-2.6531 0-4.3184 0.88514-4.9963 2.6556-0.48057 1.2258-0.4689 3.5294 0.0346 6.9112zm29.379-6.9e-4 5.4237-8.4048-5.6925-39.227h32.91l1.6609 11.445h-19.355l1.0329 7.1186h16.727l1.5595 10.748h-16.727l0.99764 6.8746h16.727l1.6613 11.445z" fill="#fff"/>
   </g>
  </g>
 </g>
</svg>